# xmcd
#
# Track frame offsets:
#	150
#	14390
#	34430
#	59591
#	79740
#	103808
#	127511
#	148127
#	169866
#
# Disc length: 2771 seconds
#
# Revision: 1
# Processed by: cddbd v1.5.2PL0 Copyright (c) Steve Scherf et al.
# Submitted via: audiograbber 1.83.01
#
DISCID=790ad109
DTITLE=Danny Bryant's RedEyeBand - Just As I Am
DYEAR=2009
DGENRE=Blues
TTITLE0=Shut Out The Light
TTITLE1=Blues For Buddy
TTITLE2=For The Last Time
TTITLE3=Every Time the Devil Smiles
TTITLE4=Just As I Am
TTITLE5=Master Of Disaster
TTITLE6=Day By Day
TTITLE7=The Hard Way
TTITLE8=Alone in the Dark
EXTD=
EXTT0=
EXTT1=
EXTT2=
EXTT3=
EXTT4=
EXTT5=
EXTT6=
EXTT7=
EXTT8=
PLAYORDER=
